<?xml version="1.0" encoding="UTF-8" standalone="no"?>
<svg
   xmlns:serif="http://www.serif.com/"
   xmlns:dc="http://purl.org/dc/elements/1.1/"
   xmlns:cc="http://creativecommons.org/ns#"
   xmlns:rdf="http://www.w3.org/1999/02/22-rdf-syntax-ns#"
   xmlns:svg="http://www.w3.org/2000/svg"
   xmlns="http://www.w3.org/2000/svg"
   xmlns:sodipodi="http://sodipodi.sourceforge.net/DTD/sodipodi-0.dtd"
   xmlns:inkscape="http://www.inkscape.org/namespaces/inkscape"
   width="400"
   height="400"
   viewBox="0 0 400 400"
   version="1.1"
   xml:space="preserve"
   style="clip-rule:evenodd;fill-rule:evenodd;stroke-linecap:round;stroke-linejoin:round;stroke-miterlimit:1.5"
   id="svg18"
   sodipodi:docname="Spot-Map.svg"
   inkscape:version="0.92.3 (2405546, 2018-03-11)"><metadata
   id="metadata24"><rdf:RDF><cc:Work
       rdf:about=""><dc:format>image/svg+xml</dc:format><dc:type
         rdf:resource="http://purl.org/dc/dcmitype/StillImage" /><dc:title></dc:title></cc:Work></rdf:RDF></metadata><defs
   id="defs22" /><sodipodi:namedview
   pagecolor="#ffffff"
   bordercolor="#666666"
   borderopacity="1"
   objecttolerance="10"
   gridtolerance="10"
   guidetolerance="10"
   inkscape:pageopacity="0"
   inkscape:pageshadow="2"
   inkscape:window-width="1920"
   inkscape:window-height="1017"
   id="namedview20"
   showgrid="false"
   inkscape:zoom="1.0040916"
   inkscape:cx="150.57216"
   inkscape:cy="218.39531"
   inkscape:window-x="-8"
   inkscape:window-y="-8"
   inkscape:window-maximized="1"
   inkscape:current-layer="svg18" />
    <g
   id="Draft--1"
   serif:id="Draft #1"
   transform="matrix(0.64029335,0,0,0.64029335,-45.772162,-12.217042)">
        <g
   transform="matrix(0.993367,0,0,1.02878,7.27651,11.4272)"
   id="g5">
            <g
   id="Layer4">
                <path
   d="m 336.742,404.903 c -71.517,9.963 -121.246,43.659 -121.246,82.154 0,46.942 73.3,85.053 163.585,85.053 90.285,0 163.585,-38.111 163.585,-85.053 0,-37.944 -48.343,-71.299 -118.495,-81.757 l -7.947,14.409 c 57.788,8.616 97.61,36.092 97.61,67.348 0,38.669 -60.381,70.062 -134.753,70.062 -74.373,0 -134.754,-31.393 -134.754,-70.062 0,-31.71 40.965,-59.467 99.877,-67.674 z"
   style="fill:#0df228"
   id="path2"
   inkscape:connector-curvature="0" />
            </g>
        </g>
        <g
   transform="matrix(0.945771,0,0,0.983775,65.2589,-44.0982)"
   id="g10">
            <g
   id="Layer1">
                <path
   d="m 336.851,114.954 c 37.426,40.963 78.902,74.747 123.357,103.246 0,0 -4.18,88.121 -29.758,120.739 -43.121,54.993 -86.351,226.899 -93.599,226.879 -6.675,-0.017 -41.485,-168.955 -93.234,-221.78 C 213.434,313.228 213.493,218.2 213.493,218.2 265.565,183.728 306.802,149.312 336.851,114.954 Z"
   style="fill:#e61a1a;stroke:#f20d0d;stroke-width:12.43999958px"
   id="path7"
   inkscape:connector-curvature="0" />
            </g>
        </g>
        <g
   transform="matrix(0.938536,0,0,0.968775,-10.9045,-17.2468)"
   id="g15">
            <g
   id="Layer3">
                <ellipse
   cx="420.599"
   cy="250.05499"
   rx="79.912003"
   ry="77.417"
   style="fill:#ffffff;stroke:#f20d0d;stroke-width:12.57999992px"
   id="ellipse12" />
            </g>
        </g>
    </g>
</svg>